<mxfile host="app.diagrams.net" agent="Mozilla/5.0 (Windows NT 10.0; Win64; x64) AppleWebKit/537.36 (KHTML, like Gecko) Chrome/134.0.0.0 Safari/537.36" version="26.1.0">
  <diagram name="Page-1" id="bxmt5OmR7mhqBll5KJgz">
    <mxGraphModel dx="1884" dy="1559" grid="1" gridSize="10" guides="1" tooltips="1" connect="1" arrows="1" fold="1" page="1" pageScale="1" pageWidth="850" pageHeight="1100" math="0" shadow="0">
      <root>
        <mxCell id="0" />
        <mxCell id="1" parent="0" />
        <mxCell id="v3M7lqjooFDRWO9AKOZ7-1" value="Translate sequences" style="rounded=1;whiteSpace=wrap;html=1;absoluteArcSize=1;arcSize=14;strokeWidth=2;fillColor=#dae8fc;strokeColor=#6c8ebf;" parent="1" vertex="1">
          <mxGeometry x="150" y="-10" width="100" height="100" as="geometry" />
        </mxCell>
        <mxCell id="v3M7lqjooFDRWO9AKOZ7-3" style="edgeStyle=orthogonalEdgeStyle;rounded=0;orthogonalLoop=1;jettySize=auto;html=1;entryX=0;entryY=0.5;entryDx=0;entryDy=0;exitX=1;exitY=0.5;exitDx=0;exitDy=0;exitPerimeter=0;" parent="1" source="v3M7lqjooFDRWO9AKOZ7-2" target="v3M7lqjooFDRWO9AKOZ7-1" edge="1">
          <mxGeometry relative="1" as="geometry">
            <mxPoint x="90" y="80" as="sourcePoint" />
          </mxGeometry>
        </mxCell>
        <mxCell id="v3M7lqjooFDRWO9AKOZ7-2" value="Query&lt;div&gt;Schema&lt;/div&gt;" style="strokeWidth=2;html=1;shape=mxgraph.flowchart.multi-document;whiteSpace=wrap;fillColor=#e1d5e7;strokeColor=#9673a6;" parent="1" vertex="1">
          <mxGeometry x="10" y="10" width="88" height="60" as="geometry" />
        </mxCell>
        <mxCell id="BJneLO5AT9rQKqXg1MKZ-2" style="edgeStyle=orthogonalEdgeStyle;rounded=0;orthogonalLoop=1;jettySize=auto;html=1;entryX=1;entryY=0.5;entryDx=0;entryDy=0;" parent="1" source="v3M7lqjooFDRWO9AKOZ7-4" target="BJneLO5AT9rQKqXg1MKZ-1" edge="1">
          <mxGeometry relative="1" as="geometry" />
        </mxCell>
        <mxCell id="v3M7lqjooFDRWO9AKOZ7-4" value="Subject&amp;nbsp;&lt;div&gt;Schema&lt;/div&gt;" style="strokeWidth=2;html=1;shape=mxgraph.flowchart.multi-document;whiteSpace=wrap;fillColor=#e1d5e7;strokeColor=#9673a6;" parent="1" vertex="1">
          <mxGeometry x="700" y="10" width="88" height="60" as="geometry" />
        </mxCell>
        <mxCell id="BJneLO5AT9rQKqXg1MKZ-10" style="edgeStyle=orthogonalEdgeStyle;rounded=0;orthogonalLoop=1;jettySize=auto;html=1;entryX=0.5;entryY=0;entryDx=0;entryDy=0;exitX=0.5;exitY=0.88;exitDx=0;exitDy=0;exitPerimeter=0;" parent="1" source="v3M7lqjooFDRWO9AKOZ7-9" target="-6ODBfF8vpPR5T03z-hk-1" edge="1">
          <mxGeometry relative="1" as="geometry">
            <Array as="points">
              <mxPoint x="331" y="100" />
              <mxPoint x="375" y="100" />
            </Array>
          </mxGeometry>
        </mxCell>
        <mxCell id="v_lqouSWwLJTW9XZB55L-2" style="edgeStyle=orthogonalEdgeStyle;rounded=0;orthogonalLoop=1;jettySize=auto;html=1;entryX=0.5;entryY=0;entryDx=0;entryDy=0;" parent="1" source="v3M7lqjooFDRWO9AKOZ7-9" target="v3M7lqjooFDRWO9AKOZ7-16" edge="1">
          <mxGeometry relative="1" as="geometry">
            <Array as="points">
              <mxPoint x="331" y="100" />
              <mxPoint x="550" y="100" />
            </Array>
          </mxGeometry>
        </mxCell>
        <mxCell id="v3M7lqjooFDRWO9AKOZ7-9" value="Query Translations" style="strokeWidth=2;html=1;shape=mxgraph.flowchart.multi-document;whiteSpace=wrap;fillColor=#f8cecc;strokeColor=#b85450;" parent="1" vertex="1">
          <mxGeometry x="287" y="10" width="88" height="60" as="geometry" />
        </mxCell>
        <mxCell id="v3M7lqjooFDRWO9AKOZ7-13" value="Subject Translations" style="strokeWidth=2;html=1;shape=mxgraph.flowchart.multi-document;whiteSpace=wrap;fillColor=#f8cecc;strokeColor=#b85450;" parent="1" vertex="1">
          <mxGeometry x="400" y="10" width="88" height="60" as="geometry" />
        </mxCell>
        <mxCell id="v_lqouSWwLJTW9XZB55L-1" style="edgeStyle=orthogonalEdgeStyle;rounded=0;orthogonalLoop=1;jettySize=auto;html=1;entryX=0.5;entryY=0;entryDx=0;entryDy=0;" parent="1" source="v3M7lqjooFDRWO9AKOZ7-16" target="v3M7lqjooFDRWO9AKOZ7-28" edge="1">
          <mxGeometry relative="1" as="geometry" />
        </mxCell>
        <mxCell id="v3M7lqjooFDRWO9AKOZ7-16" value="Calculate self-score" style="rounded=1;whiteSpace=wrap;html=1;absoluteArcSize=1;arcSize=14;strokeWidth=2;fillColor=#dae8fc;strokeColor=#6c8ebf;" parent="1" vertex="1">
          <mxGeometry x="500" y="145" width="100" height="100" as="geometry" />
        </mxCell>
        <mxCell id="v3M7lqjooFDRWO9AKOZ7-20" value="Create BLASTp database" style="rounded=1;whiteSpace=wrap;html=1;absoluteArcSize=1;arcSize=14;strokeWidth=2;fillColor=#dae8fc;strokeColor=#6c8ebf;" parent="1" vertex="1">
          <mxGeometry x="56" y="400" width="100" height="100" as="geometry" />
        </mxCell>
        <mxCell id="BJneLO5AT9rQKqXg1MKZ-11" style="edgeStyle=orthogonalEdgeStyle;rounded=0;orthogonalLoop=1;jettySize=auto;html=1;entryX=0.5;entryY=1;entryDx=0;entryDy=0;" parent="1" source="v3M7lqjooFDRWO9AKOZ7-22" target="v3M7lqjooFDRWO9AKOZ7-24" edge="1">
          <mxGeometry relative="1" as="geometry">
            <Array as="points">
              <mxPoint x="240" y="570" />
              <mxPoint x="240" y="420" />
              <mxPoint x="375" y="420" />
            </Array>
          </mxGeometry>
        </mxCell>
        <mxCell id="v3M7lqjooFDRWO9AKOZ7-22" value="Blast_db_&lt;div&gt;prot&lt;/div&gt;" style="strokeWidth=2;html=1;shape=mxgraph.flowchart.multi-document;whiteSpace=wrap;fillColor=#f8cecc;strokeColor=#b85450;" parent="1" vertex="1">
          <mxGeometry x="62" y="540" width="88" height="60" as="geometry" />
        </mxCell>
        <mxCell id="BJneLO5AT9rQKqXg1MKZ-15" style="edgeStyle=orthogonalEdgeStyle;rounded=0;orthogonalLoop=1;jettySize=auto;html=1;entryX=0;entryY=0.5;entryDx=0;entryDy=0;" parent="1" source="v3M7lqjooFDRWO9AKOZ7-24" target="v3M7lqjooFDRWO9AKOZ7-28" edge="1">
          <mxGeometry relative="1" as="geometry" />
        </mxCell>
        <mxCell id="v3M7lqjooFDRWO9AKOZ7-24" value="Run BLASTp&amp;nbsp;&lt;div&gt;rep vs rep&lt;div&gt;&lt;span style=&quot;font-weight: 400;&quot;&gt;(round 2)&lt;/span&gt;&lt;/div&gt;&lt;/div&gt;" style="rounded=1;whiteSpace=wrap;html=1;absoluteArcSize=1;arcSize=14;strokeWidth=2;fillColor=#dae8fc;strokeColor=#6c8ebf;fontStyle=1" parent="1" vertex="1">
          <mxGeometry x="325" y="300" width="100" height="100" as="geometry" />
        </mxCell>
        <mxCell id="v3M7lqjooFDRWO9AKOZ7-28" value="Process BLASTp Results and write to file" style="rounded=1;whiteSpace=wrap;html=1;absoluteArcSize=1;arcSize=14;strokeWidth=2;fillColor=#dae8fc;strokeColor=#6c8ebf;" parent="1" vertex="1">
          <mxGeometry x="500" y="320" width="100" height="100" as="geometry" />
        </mxCell>
        <mxCell id="v3M7lqjooFDRWO9AKOZ7-30" value="&lt;span style=&quot;background-color: transparent; color: light-dark(rgb(0, 0, 0), rgb(255, 255, 255));&quot;&gt;Match_Schemas&lt;/span&gt;&lt;div&gt;&lt;span style=&quot;background-color: transparent; color: light-dark(rgb(0, 0, 0), rgb(255, 255, 255));&quot;&gt;_Results.tsv&lt;/span&gt;&lt;/div&gt;" style="strokeWidth=2;html=1;shape=mxgraph.flowchart.document2;whiteSpace=wrap;size=0.25;fillColor=#d5e8d4;strokeColor=#82b366;" parent="1" vertex="1">
          <mxGeometry x="500" y="510" width="100" height="60" as="geometry" />
        </mxCell>
        <mxCell id="BJneLO5AT9rQKqXg1MKZ-1" value="Translate sequences" style="rounded=1;whiteSpace=wrap;html=1;absoluteArcSize=1;arcSize=14;strokeWidth=2;fillColor=#dae8fc;strokeColor=#6c8ebf;" parent="1" vertex="1">
          <mxGeometry x="540" y="-10" width="100" height="100" as="geometry" />
        </mxCell>
        <mxCell id="BJneLO5AT9rQKqXg1MKZ-4" style="edgeStyle=orthogonalEdgeStyle;rounded=0;orthogonalLoop=1;jettySize=auto;html=1;entryX=0;entryY=0.5;entryDx=0;entryDy=0;entryPerimeter=0;" parent="1" source="v3M7lqjooFDRWO9AKOZ7-1" target="v3M7lqjooFDRWO9AKOZ7-9" edge="1">
          <mxGeometry relative="1" as="geometry" />
        </mxCell>
        <mxCell id="BJneLO5AT9rQKqXg1MKZ-5" style="edgeStyle=orthogonalEdgeStyle;rounded=0;orthogonalLoop=1;jettySize=auto;html=1;entryX=1;entryY=0.5;entryDx=0;entryDy=0;entryPerimeter=0;" parent="1" source="BJneLO5AT9rQKqXg1MKZ-1" target="v3M7lqjooFDRWO9AKOZ7-13" edge="1">
          <mxGeometry relative="1" as="geometry" />
        </mxCell>
        <mxCell id="BJneLO5AT9rQKqXg1MKZ-9" style="edgeStyle=orthogonalEdgeStyle;rounded=0;orthogonalLoop=1;jettySize=auto;html=1;entryX=0.5;entryY=0;entryDx=0;entryDy=0;entryPerimeter=0;" parent="1" source="v3M7lqjooFDRWO9AKOZ7-20" target="v3M7lqjooFDRWO9AKOZ7-22" edge="1">
          <mxGeometry relative="1" as="geometry" />
        </mxCell>
        <mxCell id="BJneLO5AT9rQKqXg1MKZ-22" style="edgeStyle=orthogonalEdgeStyle;rounded=0;orthogonalLoop=1;jettySize=auto;html=1;entryX=0.5;entryY=0;entryDx=0;entryDy=0;entryPerimeter=0;" parent="1" source="v3M7lqjooFDRWO9AKOZ7-28" target="v3M7lqjooFDRWO9AKOZ7-30" edge="1">
          <mxGeometry relative="1" as="geometry" />
        </mxCell>
        <mxCell id="BJneLO5AT9rQKqXg1MKZ-33" value="Processes" style="rounded=0;whiteSpace=wrap;html=1;fillColor=#dae8fc;strokeColor=#6c8ebf;" parent="1" vertex="1">
          <mxGeometry x="720" y="290" width="120" height="60" as="geometry" />
        </mxCell>
        <mxCell id="BJneLO5AT9rQKqXg1MKZ-34" value="Temporary files" style="rounded=0;whiteSpace=wrap;html=1;fillColor=#f8cecc;strokeColor=#b85450;" parent="1" vertex="1">
          <mxGeometry x="720" y="370" width="120" height="60" as="geometry" />
        </mxCell>
        <mxCell id="BJneLO5AT9rQKqXg1MKZ-35" value="Input files" style="rounded=0;whiteSpace=wrap;html=1;fillColor=#e1d5e7;strokeColor=#9673a6;" parent="1" vertex="1">
          <mxGeometry x="720" y="210" width="120" height="60" as="geometry" />
        </mxCell>
        <mxCell id="BJneLO5AT9rQKqXg1MKZ-36" value="Output files" style="rounded=0;whiteSpace=wrap;html=1;fillColor=#d5e8d4;strokeColor=#82b366;" parent="1" vertex="1">
          <mxGeometry x="720" y="450" width="120" height="60" as="geometry" />
        </mxCell>
        <mxCell id="BJneLO5AT9rQKqXg1MKZ-37" value="Color description:" style="text;html=1;align=center;verticalAlign=middle;resizable=0;points=[];autosize=1;strokeColor=none;fillColor=none;" parent="1" vertex="1">
          <mxGeometry x="620" y="180" width="110" height="30" as="geometry" />
        </mxCell>
        <mxCell id="BJneLO5AT9rQKqXg1MKZ-45" style="edgeStyle=orthogonalEdgeStyle;rounded=0;orthogonalLoop=1;jettySize=auto;html=1;entryX=0.5;entryY=0;entryDx=0;entryDy=0;" parent="1" source="BJneLO5AT9rQKqXg1MKZ-40" target="v3M7lqjooFDRWO9AKOZ7-20" edge="1">
          <mxGeometry relative="1" as="geometry">
            <Array as="points">
              <mxPoint x="142" y="300" />
              <mxPoint x="106" y="300" />
            </Array>
          </mxGeometry>
        </mxCell>
        <mxCell id="BJneLO5AT9rQKqXg1MKZ-40" value="subject_&lt;div&gt;master_&lt;/div&gt;&lt;div&gt;file.fasta&lt;/div&gt;" style="strokeWidth=2;html=1;shape=mxgraph.flowchart.multi-document;whiteSpace=wrap;fillColor=#f8cecc;strokeColor=#b85450;" parent="1" vertex="1">
          <mxGeometry x="98" y="210" width="88" height="60" as="geometry" />
        </mxCell>
        <mxCell id="BJneLO5AT9rQKqXg1MKZ-46" style="edgeStyle=orthogonalEdgeStyle;rounded=0;orthogonalLoop=1;jettySize=auto;html=1;exitX=0;exitY=0.5;exitDx=0;exitDy=0;" parent="1" source="-6ODBfF8vpPR5T03z-hk-1" target="-6ODBfF8vpPR5T03z-hk-17" edge="1">
          <mxGeometry relative="1" as="geometry">
            <Array as="points">
              <mxPoint x="190" y="190" />
              <mxPoint x="190" y="110" />
              <mxPoint x="44" y="110" />
            </Array>
          </mxGeometry>
        </mxCell>
        <mxCell id="-6ODBfF8vpPR5T03z-hk-1" value="&lt;b&gt;Hash vs hash matches&lt;/b&gt;&lt;div&gt;(round 1)&lt;/div&gt;" style="rounded=1;whiteSpace=wrap;html=1;absoluteArcSize=1;arcSize=14;strokeWidth=2;fillColor=#dae8fc;strokeColor=#6c8ebf;" parent="1" vertex="1">
          <mxGeometry x="325" y="140" width="100" height="100" as="geometry" />
        </mxCell>
        <mxCell id="-6ODBfF8vpPR5T03z-hk-2" style="edgeStyle=orthogonalEdgeStyle;rounded=0;orthogonalLoop=1;jettySize=auto;html=1;exitX=0.5;exitY=0.88;exitDx=0;exitDy=0;exitPerimeter=0;entryX=0.5;entryY=0;entryDx=0;entryDy=0;" parent="1" source="v3M7lqjooFDRWO9AKOZ7-13" target="-6ODBfF8vpPR5T03z-hk-1" edge="1">
          <mxGeometry relative="1" as="geometry">
            <mxPoint x="100" y="460" as="sourcePoint" />
            <mxPoint x="100" y="402.80000000000007" as="targetPoint" />
            <Array as="points">
              <mxPoint x="444" y="100" />
              <mxPoint x="375" y="100" />
            </Array>
          </mxGeometry>
        </mxCell>
        <mxCell id="-6ODBfF8vpPR5T03z-hk-4" style="edgeStyle=orthogonalEdgeStyle;rounded=0;orthogonalLoop=1;jettySize=auto;html=1;entryX=0;entryY=0.5;entryDx=0;entryDy=0;entryPerimeter=0;exitX=1;exitY=0.5;exitDx=0;exitDy=0;" parent="1" source="-6ODBfF8vpPR5T03z-hk-1" target="v3M7lqjooFDRWO9AKOZ7-30" edge="1">
          <mxGeometry relative="1" as="geometry">
            <Array as="points">
              <mxPoint x="480" y="190" />
              <mxPoint x="480" y="540" />
            </Array>
            <mxPoint x="300" y="380" as="sourcePoint" />
            <mxPoint x="250" y="430" as="targetPoint" />
          </mxGeometry>
        </mxCell>
        <mxCell id="-6ODBfF8vpPR5T03z-hk-5" style="edgeStyle=orthogonalEdgeStyle;rounded=0;orthogonalLoop=1;jettySize=auto;html=1;entryX=1;entryY=0.5;entryDx=0;entryDy=0;entryPerimeter=0;exitX=0;exitY=0.5;exitDx=0;exitDy=0;" parent="1" source="v3M7lqjooFDRWO9AKOZ7-24" target="BJneLO5AT9rQKqXg1MKZ-40" edge="1">
          <mxGeometry relative="1" as="geometry">
            <Array as="points">
              <mxPoint x="260" y="350" />
              <mxPoint x="260" y="240" />
            </Array>
            <mxPoint x="310" y="390" as="sourcePoint" />
            <mxPoint x="260" y="440" as="targetPoint" />
          </mxGeometry>
        </mxCell>
        <mxCell id="-6ODBfF8vpPR5T03z-hk-6" value="Run BLASTp&amp;nbsp;&lt;div&gt;rep vs alleles&lt;div&gt;&lt;span style=&quot;font-weight: 400;&quot;&gt;(round 3)&lt;/span&gt;&lt;/div&gt;&lt;/div&gt;" style="rounded=1;whiteSpace=wrap;html=1;absoluteArcSize=1;arcSize=14;strokeWidth=2;fillColor=#dae8fc;strokeColor=#6c8ebf;fontStyle=1" parent="1" vertex="1">
          <mxGeometry x="325" y="440" width="100" height="100" as="geometry" />
        </mxCell>
        <mxCell id="-6ODBfF8vpPR5T03z-hk-7" style="edgeStyle=orthogonalEdgeStyle;rounded=0;orthogonalLoop=1;jettySize=auto;html=1;entryX=0.5;entryY=1;entryDx=0;entryDy=0;exitX=1;exitY=0.5;exitDx=0;exitDy=0;exitPerimeter=0;" parent="1" source="v3M7lqjooFDRWO9AKOZ7-22" target="-6ODBfF8vpPR5T03z-hk-6" edge="1">
          <mxGeometry relative="1" as="geometry">
            <mxPoint x="300" y="690" as="sourcePoint" />
            <mxPoint x="435" y="370" as="targetPoint" />
          </mxGeometry>
        </mxCell>
        <mxCell id="-6ODBfF8vpPR5T03z-hk-8" style="edgeStyle=orthogonalEdgeStyle;rounded=0;orthogonalLoop=1;jettySize=auto;html=1;entryX=0;entryY=0.5;entryDx=0;entryDy=0;exitX=0.999;exitY=0.579;exitDx=0;exitDy=0;exitPerimeter=0;" parent="1" source="-6ODBfF8vpPR5T03z-hk-6" target="v3M7lqjooFDRWO9AKOZ7-28" edge="1">
          <mxGeometry relative="1" as="geometry">
            <mxPoint x="304.0000000000002" y="700.0434782608695" as="sourcePoint" />
            <mxPoint x="445" y="380" as="targetPoint" />
          </mxGeometry>
        </mxCell>
        <mxCell id="-6ODBfF8vpPR5T03z-hk-17" value="subject_&lt;div&gt;master_&lt;/div&gt;&lt;div&gt;rep_file.fasta&lt;/div&gt;" style="strokeWidth=2;html=1;shape=mxgraph.flowchart.multi-document;whiteSpace=wrap;fillColor=#f8cecc;strokeColor=#b85450;" parent="1" vertex="1">
          <mxGeometry y="210" width="88" height="60" as="geometry" />
        </mxCell>
        <mxCell id="-6ODBfF8vpPR5T03z-hk-18" style="edgeStyle=orthogonalEdgeStyle;rounded=0;orthogonalLoop=1;jettySize=auto;html=1;entryX=0.5;entryY=0;entryDx=0;entryDy=0;exitX=0.5;exitY=0.88;exitDx=0;exitDy=0;exitPerimeter=0;" parent="1" source="-6ODBfF8vpPR5T03z-hk-17" target="v3M7lqjooFDRWO9AKOZ7-20" edge="1">
          <mxGeometry relative="1" as="geometry">
            <mxPoint x="152.00000000000023" y="200" as="sourcePoint" />
            <mxPoint x="116" y="410" as="targetPoint" />
            <Array as="points">
              <mxPoint x="44" y="300" />
              <mxPoint x="106" y="300" />
            </Array>
          </mxGeometry>
        </mxCell>
      </root>
    </mxGraphModel>
  </diagram>
</mxfile>
